<?xml version="1.0" standalone="no"?>
<!DOCTYPE svg PUBLIC "-//W3C//DTD SVG 20010904//EN"
 "http://www.w3.org/TR/2001/REC-SVG-20010904/DTD/svg10.dtd">
<svg version="1.0" xmlns="http://www.w3.org/2000/svg"
 width="101.000000pt" height="101.000000pt" viewBox="0 0 101.000000 101.000000"
 preserveAspectRatio="xMidYMid meet">
<metadata>
Created by potrace 1.16, written by Peter Selinger 2001-2019
</metadata>
<g transform="translate(0.000000,101.000000) scale(0.100000,-0.100000)"
fill="#000000" stroke="none">
<path d="M110 988 c-24 -13 -58 -40 -74 -61 l-31 -39 0 -383 0 -383 31 -39
c16 -21 50 -48 74 -61 43 -22 51 -22 386 -22 235 0 352 4 375 12 50 17 83 45
110 91 l24 42 0 360 0 360 -24 42 c-27 46 -60 74 -110 91 -23 8 -140 12 -375
12 -335 0 -343 0 -386 -22z m530 -483 l0 -275 -35 0 c-31 0 -35 3 -35 25 l0
24 -36 -24 c-44 -30 -87 -39 -162 -33 -131 10 -214 125 -188 261 8 45 70 115
120 138 76 35 187 19 243 -33 l23 -21 0 106 0 107 35 0 35 0 0 -275z m170 -75
l0 -200 -35 0 -35 0 0 200 0 200 35 0 35 0 0 -200z"/>
<path d="M335 566 c-59 -26 -101 -103 -90 -163 14 -76 113 -144 188 -129 90
18 137 71 137 153 0 115 -124 188 -235 139z"/>
</g>
</svg>
